<svg width="529" height="473" viewBox="0 0 529 473" fill="none" xmlns="http://www.w3.org/2000/svg">
<path d="M437.35 95.7384C433.895 101.076 437.881 110.153 439.243 121.27C442.266 145.646 466.351 139.628 466.351 139.628L466.65 134.461C466.65 134.461 457.481 133.339 457.714 129.259C457.714 129.259 465.554 131.401 471.866 129.191C478.144 126.981 477.912 118.618 477.912 118.618C477.912 118.618 471.301 125.996 464.889 124.296C458.478 122.596 457.946 117.36 457.946 117.36C457.946 117.36 463.727 122.732 468.676 121.746C473.626 120.76 474.623 117.088 474.623 117.088C474.623 117.088 465.188 119.57 462.763 114.369C460.338 109.167 454.957 101.926 450.605 96.8943C446.253 91.8628 439.177 92.8487 437.35 95.7044V95.7384Z" fill="#4C1E48"/>
<path d="M447.748 156.865L452.233 154.961C452.233 154.961 473.195 161.285 483.659 168.56C494.124 175.835 492.463 173.524 492.463 173.524C492.463 173.524 485.553 170.09 481.6 159.925C477.68 149.794 476.916 143.266 476.916 143.266C476.916 143.266 474.657 140.955 468.677 140.955C462.697 140.955 463.993 137.113 466.053 135.039C468.112 132.931 472.032 129.872 473.926 129.872C475.786 129.872 478.709 133.033 480.669 135.039C482.629 137.045 500.934 167.642 504.488 176.073C508.043 184.504 503.359 189.094 497.578 189.094C491.798 189.094 457.316 179.065 457.316 179.065L447.781 156.865H447.748Z" fill="#FD5E5A"/>
<path d="M461.036 457.667C461.036 466.133 367.588 473 252.314 473C137.039 473 43.5909 466.133 43.5909 457.667C43.5909 449.202 137.039 442.335 252.314 442.335C367.588 442.335 461.036 449.202 461.036 457.667Z" fill="#5CA9FF"/>
<path d="M393.532 233.935C393.532 233.935 393.432 234.377 393.233 235.227C390.741 246.582 372.902 328.48 372.902 343.778C372.902 343.778 360.843 445.667 367.819 455.798C367.819 455.798 384.695 462.087 386.556 466.201H354.697C354.697 466.201 356.558 458.517 356.558 456.613C356.558 454.71 344.798 407.59 344.798 380.733C344.798 353.875 352.305 346.498 352.305 344.594C352.305 342.656 348.552 270.073 348.552 257.767C348.552 245.46 348.651 225.98 348.651 225.98C348.651 225.98 343.635 197.524 355.694 197.524C367.753 197.524 387.918 206.534 387.918 206.534L393.532 233.935Z" fill="#42210B"/>
<path d="M161.291 121.542C161.291 121.542 190.425 121.916 195.807 123.48C201.222 125.043 259.955 161.42 271.649 171.891C283.342 182.362 339.484 222.376 348.587 239.136C348.587 239.136 377.056 242.638 390.444 236.281C397.653 232.881 389.879 223.702 390.178 215.645C390.843 199.292 340.78 178.384 323.505 171.517C306.231 164.65 284.305 157.85 284.305 157.85C284.305 157.85 277.03 148.025 266.2 138.88C255.371 129.735 211.254 117.292 198.896 113.689C186.538 110.085 166.507 105.529 162.553 107.773C158.6 110.017 161.225 121.474 161.225 121.474L161.291 121.542Z" fill="#4F3554"/>
<path d="M452.566 154.348C452.566 154.348 443.929 154.348 433.896 154.348C423.864 154.348 418.847 154.348 418.847 154.348C418.847 154.348 409.214 196.674 400.178 202.624C391.142 208.573 384.365 199.938 384.365 199.938C384.365 199.938 387.919 242.502 394.763 245.358C401.573 248.247 439.278 208.335 447.55 199.836C455.822 191.371 459.609 186.373 459.609 178.792C459.609 171.211 452.566 154.348 452.566 154.348Z" fill="#29C1C1"/>
<path d="M441.769 173.931C441.769 173.931 440.307 173.285 439.078 173.693C437.882 174.101 436.254 179.031 437.151 183.178C438.015 187.326 444.327 178.283 441.769 173.931Z" fill="#FD5E5A"/>
<path d="M420.64 160.4L418.846 154.348C418.846 154.348 405.392 155.538 399.778 167.607C394.164 179.676 392.37 224.008 400.708 229.073C409.013 234.139 433.53 215.372 438.114 206.057C442.698 196.742 444.525 191.235 444.525 191.235C444.525 191.235 450.738 185.387 452.963 183.483C455.156 181.58 454.624 180.594 452.963 179.166C451.302 177.738 450.538 176.922 450.538 175.902C450.538 174.882 449.043 175.562 448.113 173.658C447.216 171.755 444.991 172.197 441.901 172.707C438.778 173.216 441.602 179.268 438.778 180.458C435.955 181.682 437.981 184.333 436.453 187.699C434.958 191.065 411.239 212.891 409.677 214.217C407.053 216.494 422.733 165.159 420.574 160.4H420.64Z" fill="#FF8888"/>
<path d="M438.746 125.689C438.746 125.689 448.579 154.484 446.021 162.983C444.593 167.777 440.208 164.411 437.018 164.955C434.627 165.363 432.434 163.459 432.235 160.91C431.703 154.28 430.408 141.701 427.883 136.602C424.361 129.531 438.746 125.655 438.746 125.655V125.689Z" fill="#FC7575"/>
<path d="M438.746 125.689C438.746 125.689 439.609 127.865 440.739 131.129C439.908 136.092 438.214 141.702 435.424 147.787C434.095 150.677 432.832 152.921 431.67 154.655C430.972 148.161 429.776 140.376 427.916 136.636C424.394 129.565 438.779 125.689 438.779 125.689H438.746Z" fill="#FD5E5A"/>
<path d="M439.41 109.303C438.015 106.992 434.261 104.204 429.909 102.912C420.507 100.124 412.136 109.099 413.797 119.876C413.963 120.862 414.196 121.78 414.528 122.664C416.787 128.138 413.564 132.489 413.564 132.489C413.564 132.489 414.162 133.781 415.558 133.747C416.986 133.747 417.019 134.461 416.853 135.447C416.654 136.467 416.255 136.739 416.787 137.351C417.318 137.929 418.68 137.793 418.68 137.793C418.68 137.793 418.116 139.425 418.68 140.07C419.245 140.682 419.777 140.478 419.777 140.478C419.777 140.478 421.139 140.716 421.139 141.668C421.139 142.62 421.969 143.504 422.6 144.082C423.497 144.932 428.713 148.604 436.055 136.365C443.396 124.126 442.499 114.539 439.377 109.269L439.41 109.303Z" fill="#FC7575"/>
<path d="M414.494 121.338C414.494 121.338 418.381 119.537 422.168 123.106C422.168 123.106 417.982 121.033 415.158 122.12L414.461 121.338H414.494Z" fill="#422549"/>
<path d="M416.886 124.67C416.886 124.67 416.055 125.894 416.354 126.608C416.653 127.288 417.185 127.322 417.185 127.322L416.886 124.67Z" fill="#18287D"/>
<path d="M419.909 126.574C419.909 126.574 417.683 125.078 415.989 124.466C414.295 123.888 413.929 123.14 413.929 123.14C413.929 123.14 415.657 124.092 417.251 124.5C418.846 124.942 419.909 126.54 419.909 126.54V126.574Z" fill="#0F1D5B"/>
<path d="M421.403 135.515C420.739 136.534 419.776 137.316 418.713 137.758C419.842 137.452 420.905 136.772 421.736 135.719C421.802 135.617 421.802 135.481 421.702 135.413C421.603 135.345 421.503 135.345 421.437 135.447L421.403 135.481V135.515Z" fill="#0F1D5B"/>
<path d="M427.218 97.0643C437.45 94.8885 441.57 103.524 445.955 111.445C450.34 119.366 440.739 129.701 439.875 128.579C439.875 128.579 433.597 119.264 429.843 120.216C426.056 121.168 413.731 115.524 413.731 115.524C413.764 115.287 413.897 112.329 413.997 110.629C414.063 109.337 413.399 108.555 414.097 107.263C416.455 102.844 421.206 98.3221 427.285 97.0303L427.218 97.0643Z" fill="#5C2C55"/>
<path d="M432.467 113.79C435.623 115.694 441.702 121.235 444.161 123.513C444.858 124.125 444.493 125.247 443.961 125.995C441.935 128.919 440.241 129.089 439.842 128.579C439.842 128.579 433.73 120.827 430.075 119.434C426.421 118.04 416.422 116.578 413.598 116.408C412.502 116.34 413.166 107.059 414.03 107.297C418.083 108.351 426.687 110.288 432.467 113.79Z" fill="#2ADCDF"/>
<path d="M429.777 120.25C429.777 120.25 427.219 117.803 430.84 115.593C434.461 113.349 436.388 120.08 434.76 122.698C433.132 125.316 429.743 120.284 429.743 120.284L429.777 120.25Z" fill="#FC7575"/>
<path d="M431.139 120.25C431.139 120.25 429.079 117.293 430.906 116.987C432.733 116.681 434.959 119.842 433.863 120.964C432.8 122.086 431.139 120.216 431.139 120.216V120.25Z" fill="#FD5E5A"/>
<path d="M446.021 154.348C446.021 154.348 456.021 171.755 451.436 172.741C446.819 173.726 428.78 176.48 428.78 172.741C428.78 169.001 428.78 154.348 428.78 154.348H446.021Z" fill="#FC7575"/>
<path d="M84.0867 56.1319C83.522 55.8939 80.0671 54.398 78.9376 54.398C77.8081 54.398 75.1505 58.0357 75.8481 58.7496C76.5458 59.4635 84.0867 56.1319 84.0867 56.1319Z" fill="#ED5454"/>
<path d="M77.1773 57.1857C77.1773 57.1857 70.5997 61.1973 70.5997 64.359C70.5997 67.5207 71.9285 72.5522 73.8885 71.9402C75.8485 71.3623 74.4864 63.645 74.4864 63.645L78.1407 63.747L77.1773 57.1517V57.1857Z" fill="#FC7575"/>
<path d="M80.2996 57.1862C80.2996 57.1862 75.4162 55.4184 74.3532 56.4723C73.2901 57.5602 71.4298 62.4217 72.2935 63.3057C73.1572 64.1896 80.2996 57.1862 80.2996 57.1862Z" fill="#FC7575"/>
<path d="M55.5186 247.091L62.6609 258.888C62.6609 258.888 77.2114 334.463 77.2114 342.044C77.2114 349.625 82.427 442.063 82.427 442.063L81.0649 448.794L81.3307 452.432C81.3307 452.432 90.9313 450.732 98.9042 452.432C106.877 454.131 109.335 452.432 109.335 452.432C109.335 452.432 96.9774 446.516 91.7619 444.85C86.5463 443.15 89.8351 444 89.8351 444L93.6886 331.335L87.6425 212.755L55.5186 247.023V247.091Z" fill="#6E1D6B"/>
<path d="M36.2836 201.571C36.2836 201.163 36.1507 200.143 35.9514 198.681C53.9235 198.273 71.8625 198.103 90.2997 200.075C89.4027 217.889 88.7051 227.408 88.7051 227.408C88.7051 227.408 66.0489 255.353 62.6272 258.855C59.2056 262.357 38.4097 337.116 38.4097 337.116C38.4097 337.116 7.14949 431.932 9.37525 439.242C11.5678 446.551 16.7834 459.47 16.7834 459.47H0.14003V439.038L15.9528 318.961C15.9528 318.961 36.2836 206.568 36.2836 201.503V201.571Z" fill="#93278F"/>
<path d="M35.9837 198.681C36.1831 200.142 36.316 201.162 36.316 201.57C36.316 202.488 35.6515 206.806 34.5885 213.333C44.1227 209.186 67.6426 200.108 90.332 200.108C71.8948 198.137 53.9559 198.307 35.9837 198.715V198.681Z" fill="#7C1C7C"/>
<path d="M71.5961 75.7822C71.5961 75.7822 56.8131 88.7009 70.0015 117.36C83.1899 146.053 128.868 150.983 133.818 145.034C138.801 139.118 134.648 74.0143 128.735 60.3817C122.822 46.715 114.583 54.8742 114.583 60.3817C114.583 65.8891 117.207 70.0707 120.596 74.0823C123.951 78.094 125.645 130.075 116.776 125.077C107.906 120.08 85.8807 71.1586 71.5961 75.7822Z" fill="#ED5454"/>
<path d="M123.353 53.3448C122.788 53.1068 119.334 51.6109 118.204 51.6109C117.075 51.6109 114.45 55.2486 115.115 55.9625C115.812 56.6764 123.353 53.3448 123.353 53.3448Z" fill="#ED5454"/>
<path d="M116.444 54.3978C116.444 54.3978 109.867 58.4094 109.867 61.5711C109.867 64.7328 111.195 69.7643 113.155 69.1524C115.115 68.5744 113.753 60.8572 113.753 60.8572L117.408 60.9591L116.444 54.3638V54.3978Z" fill="#ED5454"/>
<path d="M119.567 54.3984C119.567 54.3984 114.683 52.6305 113.62 53.6844C112.557 54.7723 110.697 59.6338 111.56 60.5178C112.424 61.4017 119.567 54.3984 119.567 54.3984Z" fill="#ED5454"/>
<path d="M39.8372 13.6023C39.6047 7.82288 30.5024 4.5252 26.2834 12.0725L27.6122 13.0924C31.2 7.24494 38.1098 8.74079 39.8372 13.6023Z" fill="#5C2C55"/>
<path d="M30.902 203.882C28.7759 188.481 21.401 114.572 19.5075 104.033C19.3414 103.15 19.2749 102.674 19.2749 102.674C19.2749 102.674 23.3943 79.0798 24.2248 78.2299C25.0553 77.38 43.9908 74.2863 57.1792 74.2863C70.3676 74.2863 82.7255 75.9861 82.7255 75.9861C82.7255 75.9861 88.5059 94.5143 88.5059 113.926C88.5059 124.907 91.9275 168.763 90.3662 200.108C71.929 198.136 48.9406 203.474 30.9685 203.882H30.902Z" fill="#C5C6FC"/>
<path d="M90.2315 156.423C89.9325 148.127 89.5671 140.24 89.2349 133.475C87.1088 137.894 84.7834 140.274 82.3915 139.016C72.1597 133.679 62.9577 131.741 23.5253 80.3378C22.0968 86.2873 19.2399 102.674 19.2399 102.674C19.4724 104.136 19.6718 103.966 21.2996 117.802C34.1226 143.674 74.0532 156.592 90.2315 156.423Z" fill="#A3A7E2"/>
<path d="M41.0326 75.3403L45.3513 44.5733L58.1078 52.0525L64.918 74.7963C64.918 74.7963 65.4163 101.892 41.0326 75.3063V75.3403Z" fill="#FC7575"/>
<path d="M45.3527 44.5733L58.1092 52.0525L62.9926 68.371C56.9133 68.269 48.7744 64.3254 44.3893 55.8602C44.2232 55.5542 44.0571 55.2142 43.9242 54.8743L45.3859 44.5733H45.3527Z" fill="#FD5E5A"/>
<path d="M58.8059 10.7806C58.8059 10.7806 69.5028 15.4381 69.5028 24.5493C69.5028 33.6944 73.755 56.4382 69.5028 60.7898C65.2506 65.1414 50.7998 62.6596 44.3551 51.4747C37.9104 40.2897 38.9734 17.07 40.9999 14.9962C43.0263 12.9224 54.7863 6.70098 58.7727 10.7806H58.8059Z" fill="#FC7575"/>
<path d="M50.9648 14.1468V14.9967C50.9648 14.9967 53.5892 26.2496 63.5885 28.0514C73.621 29.8872 74.8501 24.5498 74.8501 24.5498C74.8501 24.5498 85.2813 29.0373 86.1118 18.3623C86.9423 7.68738 78.0061 5.30761 78.0061 5.30761C78.0061 5.30761 81.0291 12.6169 77.1755 11.767C73.322 10.9171 76.8433 4.72966 72.7573 3.3358C68.6712 1.94193 64.8841 4.18571 64.8841 4.18571C64.8841 4.18571 58.5058 3.60777 53.9878 1.09201C49.4699 -1.42374 40.434 0.684052 39.4374 4.59368C38.474 8.5373 38.175 11.189 38.175 11.189C38.2415 10.4071 35.4177 11.393 35.2849 11.461C26.3818 16.4245 32.9594 30.5672 37.3445 39.8823C38.6401 42.636 40.0021 45.3557 41.5967 47.9395C42.3608 49.1634 43.1913 50.5912 44.354 51.4752C44.354 51.4752 39.4374 38.3184 40.9987 33.9668C42.5601 29.6153 44.4869 34.2388 45.3174 29.7512C46.1479 25.2637 42.7262 24.6857 42.7262 21.0481C42.7262 17.4104 50.9648 14.1468 50.9648 14.1468Z" fill="#5C2C55"/>
<path d="M45.0196 34.306C45.0196 34.306 41.166 27.5746 38.8406 29.9544C36.5152 32.3342 40.7009 45.8989 43.0264 44.573C45.3518 43.2471 45.0196 34.306 45.0196 34.306Z" fill="#FC7575"/>
<path d="M69.6034 48.823C69.6034 48.823 65.318 51.8148 59.438 50.5569C59.438 50.5569 62.6936 54.3985 65.1519 54.3985C67.6102 54.3985 69.6034 48.823 69.6034 48.823Z" fill="white"/>
<path d="M43.5918 35.0207C43.5918 35.0207 40.7016 31.0091 39.9708 33.1849C39.2067 35.3607 42.4291 43.9278 43.5918 42.738C44.7545 41.5481 43.5918 35.0207 43.5918 35.0207Z" fill="#FD5E5A"/>
<path d="M66.1479 38.6921C67.3438 41.1399 67.4435 41.9218 67.7757 44.1996C67.4435 44.2336 66.9784 44.3696 64.5533 44.5736C65.417 44.2676 66.2807 43.9616 67.1445 43.7236C66.8123 42.0578 64.0218 35.1225 62.9919 34.3745C64.1879 34.8845 65.5831 37.5022 66.1479 38.6921Z" fill="#2846A6"/>
<path d="M55.4164 34.8163C55.4164 36.0742 56.114 37.0601 56.9777 37.0601C57.8414 37.0601 58.5391 36.0402 58.5391 34.8163C58.5391 33.5584 57.8414 32.5725 56.9777 32.5725C56.114 32.5725 55.4164 33.5924 55.4164 34.8163Z" fill="#2846A6"/>
<path d="M66.5137 34.8163C66.5137 36.0742 67.2113 37.0601 68.075 37.0601C68.9387 37.0601 69.6364 36.0402 69.6364 34.8163C69.6364 33.5584 68.9387 32.5725 68.075 32.5725C67.2113 32.5725 66.5137 33.5924 66.5137 34.8163Z" fill="#2846A6"/>
<path d="M57.8416 28.1523C57.8416 28.1523 53.7887 27.3364 51.729 29.4782C49.6694 31.586 50.4335 32.9458 50.965 32.9458C51.5297 32.9458 51.6626 29.2742 53.7223 29.4782C59.4361 30.0561 59.5026 28.3223 57.8416 28.1523Z" fill="#2846A6"/>
<path d="M24.2246 78.2305C24.2246 78.2305 7.01656 91.1493 22.3643 119.809C37.712 148.502 90.8644 153.397 96.6447 147.482C102.425 141.566 97.6081 76.4627 90.7315 62.83C87.941 57.2886 83.6888 55.7927 81.8285 55.3507C77.7424 54.3648 74.2543 59.5663 74.2543 62.83C74.2543 68.3375 77.3105 72.5191 81.2305 76.5307C85.1505 80.5423 87.0773 132.523 76.779 127.526C66.4807 122.528 40.8347 73.607 24.1914 78.2305H24.2246Z" fill="#FC7575"/>
<path d="M106.044 149.691H87.0421C83.6537 149.691 80.9296 146.904 80.9296 143.436V74.5925C80.9296 71.1588 83.6537 68.3371 87.0421 68.3371H106.044C109.433 68.3371 112.157 71.1248 112.157 74.5925V143.436C112.157 146.904 109.433 149.691 106.044 149.691Z" fill="#00CCCC"/>
<path d="M107.374 87.0013H93.8531C89.6342 87.0013 86.1793 83.4657 86.1793 79.1481C86.1793 74.8305 89.6342 71.2948 93.8531 71.2948H107.374C111.593 71.2948 115.048 74.8305 115.048 79.1481C115.048 83.4657 111.593 87.0013 107.374 87.0013Z" fill="#0EE0DA"/>
<path d="M108.404 105.699H94.8837C90.6648 105.699 87.2099 102.164 87.2099 97.8461C87.2099 93.5285 90.6648 89.9929 94.8837 89.9929H108.404C112.623 89.9929 116.078 93.5285 116.078 97.8461C116.078 102.164 112.623 105.699 108.404 105.699Z" fill="#0EE0DA"/>
<path d="M108.57 124.397H95.8137C91.6612 124.397 88.2727 120.929 88.2727 116.68V116.374C88.2727 112.124 91.6612 108.657 95.8137 108.657H108.57C112.723 108.657 116.111 112.124 116.111 116.374V116.68C116.111 120.929 112.723 124.397 108.57 124.397Z" fill="#0EE0DA"/>
<path d="M108.77 143.096H97.1425C93.1228 143.096 89.834 139.73 89.834 135.617V134.903C89.834 130.789 93.1228 127.423 97.1425 127.423H108.77C112.789 127.423 116.111 130.789 116.111 134.903V135.617C116.111 139.73 112.822 143.096 108.77 143.096Z" fill="#0EE0DA"/>
<path d="M126.941 84.9952L122.19 87.3409L120.961 79.1477L126.941 80.3376V84.9952Z" fill="#1B1464"/>
<path d="M126.94 118.38L121.16 119.162L122.024 110.697L126.94 111.785V118.38Z" fill="#1B1464"/>
<path d="M143.351 149.691H131.491C128.136 149.691 125.379 146.904 125.379 143.436V74.5925C125.379 71.1588 128.103 68.3371 131.491 68.3371H143.351C146.706 68.3371 149.464 71.1248 149.464 74.5925V143.436C149.464 146.904 146.74 149.691 143.351 149.691Z" fill="#00CCCC"/>
<path d="M145.245 87.0013H136.807C133.153 87.0013 130.13 83.9416 130.13 80.168V78.0942C130.13 74.3545 133.12 71.2948 136.807 71.2948H145.245C148.899 71.2948 151.889 74.3545 151.889 78.0942V80.168C151.889 83.9076 148.899 87.0013 145.245 87.0013Z" fill="#0EE0DA"/>
<path d="M146.54 124.772H138.102C134.447 124.772 131.458 121.712 131.458 117.939V115.865C131.458 112.125 134.447 109.066 138.102 109.066H146.54C150.194 109.066 153.217 112.125 153.217 115.865V117.939C153.217 121.678 150.227 124.772 146.54 124.772Z" fill="#0EE0DA"/>
<path d="M146.54 141.736H138.102C134.447 141.736 131.458 138.676 131.458 134.903V132.829C131.458 129.089 134.447 125.995 138.102 125.995H146.54C150.194 125.995 153.217 129.055 153.217 132.829V134.903C153.217 138.642 150.227 141.736 146.54 141.736Z" fill="#0EE0DA"/>
<path d="M146.574 105.699H138.037C134.349 105.699 131.36 102.606 131.36 98.866V96.8262C131.36 93.0526 134.383 89.9929 138.037 89.9929H146.574C150.262 89.9929 153.252 93.0866 153.252 96.8262V98.866C153.252 102.64 150.229 105.699 146.574 105.699Z" fill="#0EE0DA"/>
<path d="M221.352 93.4612C202.051 78.0947 165.243 88.9396 160.957 90.2995C160.725 90.3675 160.492 90.2315 160.426 90.0275C160.359 89.7895 160.492 89.5516 160.692 89.4836C165.043 88.1237 202.217 77.2108 221.85 92.8153C222.049 92.9852 222.083 93.2572 221.916 93.4612C221.784 93.6652 221.485 93.6652 221.318 93.5292L221.352 93.4612Z" fill="#411AC0"/>
<path d="M43.0269 159.755C25.553 153.669 2.83041 125.996 0.106351 122.596C-0.0597502 122.392 -0.02653 122.12 0.172791 121.984C0.372113 121.814 0.637874 121.848 0.770755 122.052C3.49481 125.418 26.0513 152.921 43.3258 158.905C43.5584 158.973 43.6581 159.211 43.5916 159.449C43.5252 159.687 43.2594 159.823 43.0269 159.755Z" fill="#411AC0"/>
<path d="M523.49 193.139C523.291 193.037 523.191 192.765 523.291 192.561C537.377 160.74 516.514 138.608 513.724 135.854C513.558 135.684 513.558 135.412 513.691 135.242C513.857 135.038 514.122 135.038 514.322 135.208C517.245 138.098 538.373 160.57 524.088 192.901C523.989 193.139 523.723 193.207 523.524 193.105L523.49 193.139Z" fill="#411AC0"/>
<path d="M505.717 159.483C505.485 159.483 505.285 159.279 505.285 159.041C505.086 131.571 486.915 109.235 484.423 106.312C484.257 106.142 484.29 105.87 484.456 105.7C484.622 105.53 484.921 105.53 485.088 105.734C487.646 108.725 505.95 131.299 506.149 159.041C506.149 159.279 505.95 159.483 505.717 159.483Z" fill="#411AC0"/>
</svg>
