<svg width="72" height="147" viewBox="0 0 72 147" fill="none" xmlns="http://www.w3.org/2000/svg">
<path d="M34.9752 30.558C34.9752 30.558 51.393 46.9932 52.0402 46.184C52.6874 45.3747 58.5147 33.9649 59.4046 32.3466H62.6406C62.6406 32.3466 60.8069 52.3569 54.0088 56.3262C54.0088 56.3262 36.0563 50.8147 34.2373 45.8604C32.4183 40.9063 34.9752 30.558 34.9752 30.558" fill="#E8945B"/>
<path d="M71.5656 33.3955C71.3621 34.0687 70.6586 34.6146 69.4867 34.417L34.153 29.2269C32.0839 28.971 29.8603 28.5738 27.5633 28.0313C18.0244 25.7781 9.70883 26.1775 10.7973 19.4941C10.8316 19.2855 10.8733 19.0698 10.9272 18.8465C12.7781 11.0153 20.0763 15.7553 29.9143 18.0791C32.2113 18.6216 34.3785 19.2622 36.3422 19.9604L70.5458 31.5831C71.4479 31.8628 71.774 32.6971 71.5656 33.3955" fill="#F1A34F"/>
<path d="M71.5656 33.3955C71.3621 34.0687 70.6586 34.6146 69.4867 34.417L34.153 29.2269C32.0839 28.971 29.8603 28.5738 27.5633 28.0313C18.0244 25.7781 9.70883 26.1775 10.7973 19.4942C14.1657 17.415 20.5691 20.2978 28.3772 21.6856C30.8213 22.1192 33.1356 22.6649 35.239 23.282L71.5656 33.3955" fill="#E58435"/>
<path d="M63.4014 33.5231L63.296 29.3347C63.296 29.3347 63.2445 28.1379 65.6887 29.1011C68.1353 30.0645 66.0588 33.6786 65.9142 33.958C65.5563 34.6459 63.4406 33.9794 63.4014 33.5231" fill="#2B478B"/>
<path d="M14.6558 72.2752C14.6558 72.2752 15.7933 107.078 14.6263 110.867C13.4619 114.655 8.84809 121.936 8.36269 139.415C8.36269 139.415 8.37004 141.67 7.83071 142.641C7.29137 143.614 6.64417 146.287 7.29137 147H22.2898C22.2898 147 22.3976 144.909 17.3254 143.183C17.3254 143.183 14.2512 142.805 15.1411 139.729C16.031 136.655 27.8449 115.939 28.4921 112.054C29.1393 108.17 37.9795 75.5335 31.4242 72.2752C24.8712 69.0166 14.6558 72.2752 14.6558 72.2752Z" fill="#E8945B"/>
<path d="M39.0106 62.0432C36.2355 75.4023 35.6814 73.7223 33.1294 75.6852C25.6571 81.434 14.4463 75.6852 14.4463 75.6852C13.5491 69.0546 13.2328 63.2876 13.3333 58.2809C13.4093 54.3879 13.7378 50.9555 14.2355 47.9333C16.9273 31.5774 24.6079 27.2652 24.6079 27.2652C24.6079 27.2652 31.6732 23.9437 35.9486 27.4032C51.1505 39.7101 42.1902 46.7487 39.0106 62.0432Z" fill="#FFB27D"/>
<path d="M14.6562 72.115C14.6562 72.115 12.8372 85.7859 37.8917 107.295C37.8917 107.295 40.353 110.425 41.0002 113.985C41.6474 117.545 43.4297 128.552 53.9492 140.689C53.9492 140.689 53.6795 144.681 53.9492 145.762C54.2188 146.84 54.2188 146.84 54.2188 146.84H69.7541C69.7541 146.84 69.1069 143.386 65.2237 142.415C61.3405 141.445 57.9942 139.071 54.9739 128.498C51.9536 117.922 51.9536 102.926 49.0388 99.6892C46.1264 96.4523 38.9557 69.1543 30.672 67.2122C22.3883 65.2701 14.6562 72.115 14.6562 72.115" fill="#FFB27D"/>
<path d="M57.6479 27.1646C57.6479 27.1646 56.0299 30.0856 58.6996 30.7735C61.3718 31.4612 63.1516 29.0741 63.1516 29.0741C63.1516 29.0741 60.4696 26.9408 57.6479 27.1646Z" fill="#FFB27D"/>
<path d="M37.9369 20.496C37.8682 22.3971 37.2505 25.6116 36.4684 27.8231C36.0713 28.9478 35.63 29.8132 35.1986 30.116C33.5806 31.2498 21.8966 29.8674 22.9287 28.5887C25.2135 25.755 27.3145 18.622 27.3145 18.622C27.3145 18.622 36.9244 18.0305 37.7334 19.001C37.9026 19.2026 37.9614 19.7466 37.9369 20.496" fill="#FFB27D"/>
<path d="M37.9376 20.4956C37.8689 22.3968 37.2512 25.6112 36.4691 27.8228C32.9904 26.9265 27.6633 22.2446 27.0234 22.3769C27.0234 22.3769 33.2037 20.6827 37.918 20.4956H37.9376Z" fill="#E8945B"/>
<path d="M37.3927 4.75168C37.3927 4.75168 45.4851 15.2177 40.6483 22.408C40.6483 22.408 26.3878 27.1941 23.9068 18.2387C21.4259 9.28332 27.6822 -0.1038 37.3927 4.75168Z" fill="#FFB27D"/>
<path d="M13.5489 66.8652C13.5489 66.8652 11.649 73.5723 13.3185 79.3677C14.988 85.1633 13.5489 91.1595 13.5489 91.1595C13.5489 91.1595 26.7552 96.0498 42.6779 84.8969C42.6779 84.8969 37.3752 73.9329 37.6473 72.0698C37.9195 70.2066 37.8067 67.4803 37.8067 67.4803L13.5489 66.8652Z" fill="#233862"/>
<path d="M42.1915 13.5554C40.9461 12.6488 36.2074 16.0804 34.6972 16.8455C33.1871 17.6107 29.5539 16.8455 29.5539 16.8455C28.1737 15.1425 26.4209 14.9032 27.5216 13.5554C28.8969 11.8726 30.5983 12.1962 31.1646 13.0055C31.7309 13.815 39.3428 9.93054 37.6832 3.94196C37.6832 3.94196 33.8318 -5.4449 18.9437 4.75146C8.73559 11.7439 27.024 22.3767 27.024 22.3767C31.0567 24.9689 39.2276 23.7409 40.6495 22.4078C42.0714 21.0742 43.4369 14.4619 42.1915 13.5554" fill="#2B478B"/>
<path d="M13.3184 60.8061C13.3184 60.8061 23.2323 64.6751 39.0127 62.0439L37.8066 67.4804C37.8066 67.4804 24.007 71.9598 13.5488 66.8653L13.3184 60.8061Z" fill="#2B478B"/>
<path d="M32.776 38.7328C32.776 38.7328 24.355 55.5552 13.333 58.2817C13.409 54.3887 13.7375 50.9564 14.2352 47.9341C19.7609 43.2647 29.4297 38.8181 32.776 38.7328" fill="#E8945B"/>
<path d="M26.383 30.8022C26.383 30.8022 2.50024 45.5854 1.52944 48.7108C0.556184 51.8363 0.288959 68.4529 0.440953 72.4629C0.440953 72.4629 -0.292042 77.4679 0.132071 78.6248C0.553733 79.7817 2.72333 82.7228 4.05941 81.8424C5.39549 80.9623 5.06209 76.0262 5.64555 75.9524C6.23147 75.8786 6.45946 77.5508 6.73648 77.1024C7.0135 76.6535 6.68254 74.949 4.4394 73.0973C4.4394 73.0973 8.20739 52.7085 8.97471 52.357C12.9756 50.5262 32.4186 40.9062 32.4186 40.9062C32.4186 40.9062 38.1944 28.6942 26.383 30.8022Z" fill="#FFB27D"/>
<path d="M40.2956 41.0118C39.9426 41.0118 39.6533 41.2994 39.6533 41.6538C39.6533 42.0086 39.9426 42.2964 40.2956 42.2964C40.6511 42.2964 40.9379 42.0086 40.9379 41.6538C40.9379 41.2994 40.6511 41.0118 40.2956 41.0118Z" fill="#E8945B"/>
</svg>
