<svg width="98" height="147" viewBox="0 0 98 147" fill="none" xmlns="http://www.w3.org/2000/svg">
<path d="M61.1851 145.039C59.0652 144.7 55.3989 143.489 54.5798 140.824C53.912 138.941 53.3014 127.061 53.5843 121.246C53.9691 113.451 57.9135 104.2 59.0603 89.8056C59.9042 79.209 57.345 70.1941 57.345 70.1941L40.5723 69.1722C40.5723 69.1722 44.5737 110.62 43.7545 113.821C40.252 127.478 48.7439 138.832 49.1138 141.74C49.0368 142.837 48.7712 146.554 49.6773 147H63.4241C63.4241 147 63.3695 145.388 61.1851 145.039" fill="#E8945B"/>
<path d="M34.5245 114.763C43.6346 100.12 57.3486 71.4395 57.3486 71.4395L36.7055 65.6825C36.7055 65.6825 35.7324 73.9691 35.5563 78.1562C35.3778 82.343 29.1895 102.702 26.7299 104.265C19.0721 109.129 20.8765 132.214 19.9792 135.024L19.4315 135.716C19.4315 135.716 17.011 137.927 17.4829 139.497C17.9548 141.067 20.1406 142.114 20.434 144.032C20.7298 145.953 21.9132 147 22.9743 147C24.0379 147 28.0428 147 28.0428 147C28.0428 147 28.8277 145.649 26.9352 145.241C25.0453 144.835 24.3338 142.58 24.4511 140.486C24.5074 139.499 24.4707 138.357 24.4169 137.426C24.7592 133.8 27.1382 126.634 34.5245 114.763Z" fill="#FFB27D"/>
<path d="M62.0645 37.0052C60.2935 31.0394 56.0319 26.3563 53.9172 24.4265L52.7939 23.5821C52.4825 23.3213 52.1214 23.0439 51.7104 22.7694L51.688 22.7519C51.6855 22.7519 51.6855 22.7522 51.6855 22.7522C51.5012 22.6287 51.3069 22.5064 51.1027 22.3865C50.8686 22.2473 50.7415 21.9771 50.7864 21.7068C50.9233 20.8846 51.0329 20.1581 51.0977 19.5272C51.3094 17.8076 51.3094 16.8332 51.3094 16.8332L47.9345 14.1773L44.7313 11.6362C44.8957 16.2728 42.9928 19.3553 41.6353 20.9496C39.3638 23.8083 37.5455 28.0941 36.8207 32.298C36.2777 35.4891 36.0087 39.0619 36.0287 42.807C36.0287 44.1826 36.066 45.5961 36.1432 46.9912C36.609 54.5571 35.9888 62.4687 35.7173 66.2706C35.6376 67.3789 44.5844 71.6762 48.5422 72.0586C53.2198 72.5363 56.119 69.5673 56.5998 67.7267C56.7592 67.1087 64.8043 46.2397 62.0645 37.0052" fill="#FFB27D"/>
<path d="M58.4536 68.1939C58.4536 68.1939 63.1493 87.8477 61.0061 88.0263C58.6843 88.2195 48.881 88.0526 47.9905 79.4707C47.4869 74.5775 58.4536 68.1939 58.4536 68.1939" fill="#233862"/>
<path d="M44.6738 14.3676C44.6738 14.3676 46.8867 18.3992 51.0983 19.5264C51.3102 17.8068 51.3102 16.8323 51.3102 16.8323L47.9342 14.1766L44.6738 14.3676" fill="#E8945B"/>
<path d="M35.7173 67.8788C35.7173 67.8788 26.7266 96.6695 26.7266 97.654C26.7266 98.6387 50.0009 93.3481 53.9687 92.0353C57.9365 90.7225 58.783 69.7329 58.4542 68.1941C58.1279 66.6554 35.7173 67.8788 35.7173 67.8788Z" fill="#2B478B"/>
<path d="M52.8505 16.7171C52.8505 16.7171 44.5014 18.0826 43.7188 12.9506C42.9337 7.81817 41.3295 4.53808 46.6258 3.44917C51.9245 2.36026 53.2613 4.16521 53.9443 5.81535C54.6298 7.46573 55.0016 16.2298 52.8505 16.7171" fill="#E8945B"/>
<path d="M35.7161 66.2707C35.7161 66.2707 56.0634 68.5449 57.537 64.7081L58.4539 68.1941C58.4539 68.1941 47.671 73.9337 35.3115 69.1721L35.7161 66.2707" fill="#4A75CB"/>
<path d="M78.0047 67.2189C76.8327 66.5356 73.27 65.6828 73.27 65.6828C73.27 65.6828 66.6827 56.9703 65.3657 55.6526C64.0488 54.3351 57.1769 36.4737 57.1769 36.4737C57.1769 36.4737 54.3852 49.65 55.8496 53.8961C57.3114 58.1416 71.0759 67.2189 71.0759 67.2189C71.0759 67.2189 72.8327 68.1459 73.27 69.1035C73.7098 70.0611 76.1988 70.0492 76.8197 69.9027C77.4381 69.7563 80.1522 72.3917 80.3488 71.69C80.5429 70.9884 79.1768 67.902 78.0047 67.2189" fill="#E8945B"/>
<path d="M44.8106 11.0507C44.7983 10.9592 44.7835 10.8761 44.7638 10.8048C44.4933 9.7993 44.5818 8.25247 45.5165 8.67429C46.1215 8.94755 46.424 9.1207 46.6651 9.17998C46.6651 9.21958 46.6651 9.25451 46.6651 9.28131C46.6307 11.0355 45.5583 12.3627 44.8106 11.0507V11.0507ZM51.2915 0.154091C44.8942 -0.350858 42.5822 0.454915 41.5049 1.56246C41.5713 0.987412 42.0706 0.720777 42.0706 0.720777C41.1384 0.953206 40.8531 1.91121 40.7695 2.45182C40.3539 2.46215 40.0439 2.65646 40.0439 2.65646C40.4326 2.67786 40.6072 2.74796 40.6834 2.83478C40.6318 2.94817 40.5777 3.06081 40.526 3.17199C39.9357 4.43276 40.2014 10.9255 41.4951 12.3216C42.7937 13.7176 44.572 15.0785 44.572 15.0785V15.0773C47.2136 18.8099 51.3506 16.98 52.7132 16.877C54.2529 16.7606 55.185 13.1382 54.3439 12.1942C53.4978 11.2507 51.8203 12.6863 50.138 12.6047C48.8197 12.54 47.826 10.1771 47.4595 9.16129C47.4374 9.103 47.398 9.01494 47.3538 8.91607C47.8949 8.15631 48.2466 6.0401 49.9806 5.90261C52.0147 5.74102 54.762 7.50551 55.854 6.86185C56.9436 6.21818 59.7229 0.819651 51.2915 0.154091" fill="#2B478B"/>
<path d="M61.8928 61.9511C58.823 61.9212 35.7349 62.056 35.7174 58.0419C35.7149 57.8024 35.7199 57.4872 35.7299 57.1048C35.7897 54.5201 36.0712 48.8834 36.3752 43.2805C36.7739 35.7925 37.2125 28.3652 37.2125 28.3652C37.2125 28.3652 39.5571 20.4042 42.3304 20.0497C45.1062 19.6953 62.3512 28.8655 63.0091 40.4517C63.3703 46.8205 64.9601 61.9805 61.8928 61.9511" fill="#2B478B"/>
<path d="M0.366443 110.514L0.238939 110.375C-0.103744 109.996 -0.0745231 109.404 0.30535 109.06L90.0297 27.6296C90.4096 27.2856 91.002 27.3143 91.3447 27.6934L91.4722 27.832C91.8149 28.2111 91.7857 28.8032 91.4058 29.1475L1.68139 110.577C1.30152 110.922 0.709126 110.893 0.366443 110.514Z" fill="#233862"/>
<path d="M92.1342 28.2506C91.8624 28.154 91.5879 27.9805 91.3458 27.6928C90.4012 26.5798 91.4534 25.4148 91.4534 25.4148L97.4544 22.277C97.4544 22.277 93.8915 27.883 93.7785 28.0496C93.6951 28.1739 92.9173 28.531 92.1342 28.2506" fill="#97BDFF"/>
<path d="M92.134 28.2506C92.0183 27.738 92.3009 26.5889 92.3547 26.4091C92.4166 26.2046 97.4542 22.277 97.4542 22.277C97.4542 22.277 93.8913 27.883 93.7783 28.0496C93.6948 28.1739 92.9171 28.531 92.134 28.2506Z" fill="#85ABF7"/>
<path d="M91.8161 29.1454C92.3648 28.8044 92.9934 28.3412 92.9934 28.3412C91.4645 27.2997 91.0543 26.1032 91.0543 26.1032C90.1246 26.816 89.6531 27.9718 89.6531 27.9718C89.6531 27.9718 90.8145 29.322 91.0249 29.485C90.4629 30.5478 89.4001 32.4012 89.3255 32.8173C89.2243 33.3756 90.2312 33.7959 90.2312 33.7959C90.8065 32.8519 91.1501 30.5755 91.2913 29.4355C91.3819 29.3958 91.4858 29.3404 91.5976 29.2754C91.7015 29.5753 91.7814 29.9655 91.7042 30.3344C91.547 31.0776 92.0798 30.6488 92.2316 30.7116C92.3808 30.7739 92.6338 30.758 92.5752 30.5233C92.5752 30.5233 92.4713 29.8201 91.8161 29.1454" fill="#F1A34F"/>
<path d="M35.7295 57.1055C35.7891 54.5211 36.0705 48.8841 36.3733 43.2817C41.2616 39.0592 45.9686 35.5916 45.9686 35.5916C45.9686 35.5916 47.49 52.4402 35.7295 57.1055" fill="#233862"/>
<path d="M47.1502 26.3172C45.7166 24.4861 42.9717 24.3938 41.3583 26.0664C36.6619 30.9323 22.6158 45.7949 22.9826 49.0886C23.4213 53.0413 28.2304 59.0574 40.5719 69.1723C41.0346 71.8209 41.821 71.3803 41.821 71.3803L43.245 70.0895C43.245 70.0895 44.1344 71.1357 45.0502 70.7332C45.9659 70.3307 46.1122 68.0247 45.8557 67.7205C45.5992 67.416 42.8806 68.1402 42.8806 68.1402C42.8806 68.1402 32.4234 50.4982 33.0083 49.4892C33.5933 48.4794 47.3492 38.8169 48.6725 36.1813C49.5787 34.3677 49.3534 29.1345 47.1502 26.3172" fill="#E8945B"/>
</svg>
