<svg width="92" height="147" viewBox="0 0 92 147" fill="none" xmlns="http://www.w3.org/2000/svg">
<path d="M26.761 110.92C26.2967 111.951 24.5389 114.321 22.2632 117.192C16.689 124.221 8.00237 134.253 7.55962 135.013C6.93616 136.079 12.9822 144.613 12.4484 144.966C11.9141 145.324 9.78173 144.791 9.16015 144.433C8.53616 144.08 7.46995 141.945 4.26972 140.967C1.06895 139.989 0.00274873 139.545 0.00274873 139.545C-0.086932 138.034 2.04764 135.632 2.04764 135.632C3.11384 127.989 7.91459 116.61 10.4036 113.942C12.8925 111.275 13.2752 107.304 13.2752 107.304C13.1099 105.461 12.9723 103.632 12.8586 101.824C11.665 82.6549 13.2752 66.1719 13.2752 66.1719C13.2752 66.1719 28.2077 64.7968 32.0142 66.1719C35.8206 67.5452 28.3613 107.364 26.761 110.92Z" fill="#2B478B"/>
<path d="M26.7609 110.92C26.2966 111.952 24.5388 114.322 22.2631 117.193C18.0721 113.552 14.9831 107.433 12.8585 101.825C11.6649 82.6556 13.2751 66.1726 13.2751 66.1726C13.2751 66.1726 28.2076 64.7975 32.014 66.1726C35.8205 67.5458 28.3611 107.365 26.7609 110.92Z" fill="#233862"/>
<path d="M63.8159 75.3556L61.2683 79.6221C59.3454 78.5602 57.4494 77.5398 55.6208 76.5592C55.6181 76.5592 55.6181 76.5592 55.6181 76.5592C46.6357 71.7525 39.2324 67.9361 37.8788 64.8929C36.456 61.6902 35.1787 33.1408 35.1787 33.1408C37.8072 26.3111 46.7373 29.3904 48.3017 34.0513C49.868 38.7126 46.7195 56.8197 45.8564 58.2665C45.1386 59.4684 57.9961 70.4571 62.3805 74.1499C63.2746 74.9054 63.8159 75.3556 63.8159 75.3556" fill="#2B478B"/>
<path d="M47.4027 51.3076C45.448 57.1902 43.5426 62.2861 42.9386 64.6953C42.6561 65.8313 42.1616 67.1304 41.5099 68.5101C40.7068 70.2157 39.6586 72.0454 38.4626 73.8409C36.6394 76.5808 34.4712 79.2454 32.2949 81.2782C32.265 81.3078 32.2334 81.3361 32.2033 81.3638C29.762 83.6239 27.3169 85.0825 25.3377 84.9629C25.1387 84.951 24.9313 84.9311 24.7199 84.905C21.4478 84.4986 16.7707 82.3482 13.9507 77.2148C13.4843 76.3676 13.0698 75.439 12.7229 74.4245C12.456 73.6553 12.2287 72.8382 12.0456 71.9673C12.0434 71.9573 12.0413 71.9516 12.0413 71.9476C12.0394 71.9455 12.0394 71.9436 12.0394 71.9417C11.35 68.6593 11.2824 64.6358 12.1751 59.7435C12.1848 59.6875 12.1948 59.6317 12.2069 59.5738C12.3502 58.7966 12.5199 57.9957 12.7151 57.1724C14.1697 51.0245 16.9317 45.285 20.1107 40.241C20.2879 39.9601 20.4654 39.683 20.6447 39.408C21.3684 38.2918 22.1095 37.214 22.8606 36.1734C29.0545 27.5904 35.8344 21.6717 37.548 20.2307C37.8171 20.0052 37.9606 19.89 37.9606 19.89C37.9606 19.89 41.0397 17.8392 46.7593 20.2705C47.7735 20.7009 48.8715 21.2729 50.0514 22.0243C51.1098 22.6978 51.7852 23.8416 52.1558 25.3322C52.1598 25.3484 52.1636 25.3624 52.1657 25.3783C53.5767 31.1833 50.4319 42.1882 47.4027 51.3076" fill="#2B478B"/>
<path d="M12.04 71.9437C12.04 71.9437 18.7599 95.2647 38.6728 111.093C38.6728 111.093 40.4505 113.767 38.6728 122.476C36.8948 131.189 44.8955 143.1 44.8955 143.1L44.1843 147H58.3193C58.3193 147 56.8974 144.703 52.8071 144.17C48.7178 143.636 49.3405 141.145 49.6068 139.457C49.8735 137.768 53.7852 111.809 51.296 106.476C48.807 101.142 40.2203 72.3986 35.1795 69.6136C30.1386 66.8281 15.6324 66.391 12.04 71.9437" fill="#2B478B"/>
<path d="M42.745 36.1733C42.745 36.9403 40.7519 67.3103 30.2563 75.7739L26.1377 52.4871L42.745 36.1733" fill="#233862"/>
<path d="M31.1447 72.6071C30.2341 74.7754 28.6975 76.6805 26.1086 76.9894C26.5408 77.9931 26.9763 79.0141 27.4126 80.0498C27.6687 80.6579 27.5758 81.3568 27.171 81.8779C26.9488 82.1637 26.6873 82.4982 26.4134 82.8445C25.7679 83.6594 25.0564 84.5425 24.6341 85.0009C23.7211 85.9914 24.2732 88.911 25.0424 89.7238C25.8118 90.5371 30.5886 88.0837 31.0787 87.436C31.3477 87.0832 31.7364 84.6901 32.0375 82.5835C32.2844 80.8257 32.4716 79.2715 32.4716 79.2715C32.4716 79.2715 31.8681 76.3937 31.1447 72.6071" fill="#FFB27D"/>
<path d="M66.7409 80.3411C65.5614 78.1928 63.8162 75.3551 63.8162 75.3551C63.8162 75.3551 63.2749 74.9048 62.3808 74.1494C62.3781 74.1494 62.3781 74.1513 62.3781 74.1513C60.5764 76.9831 55.7342 76.5686 55.6211 76.5587C57.1292 77.3671 58.6832 78.2031 60.2586 79.067C60.8834 79.4088 61.2739 80.0602 61.282 80.772C61.282 80.8553 61.282 80.942 61.2847 81.0309C61.2955 82.2382 61.2955 83.9101 61.2362 84.7153C61.1366 86.0586 63.3826 88.0017 64.4895 88.1611C65.5991 88.3225 67.8155 83.4299 67.7994 82.619C67.794 82.3462 67.3388 81.4313 66.7409 80.3411" fill="#E8945B"/>
<path d="M35.4497 40.5941L26.0017 52.0231L26.703 65.1103L26.8167 67.2206L27.2968 76.2006L27.4307 78.6914C27.2492 78.6876 27.0579 78.6518 26.8546 78.5861C24.5092 77.8328 20.8002 73.1374 17.4045 68.0377C16.8443 67.1969 16.2925 66.344 15.7582 65.4968C14.441 63.4144 13.2194 61.3618 12.207 59.5741C12.3503 58.7968 12.52 57.9959 12.7152 57.1726C14.1698 51.0248 16.9318 45.2852 20.1108 40.2413C20.288 39.9604 20.4655 39.6833 20.6448 39.4083C23.8814 37.6825 27.2669 36.7259 30.2584 36.2037C32.0898 35.8849 33.7738 35.7295 35.1866 35.6619C37.7954 35.5361 39.4875 35.7096 39.4875 35.7096L35.4497 40.5941" fill="#233862"/>
<path d="M45.9857 37.2697C44.3159 41.8951 30.5967 54.1251 29.0226 54.7211C28.4206 54.9503 28.7812 58.5854 29.457 62.9916C29.457 62.9916 29.457 62.9917 29.457 62.9935C30.553 70.1241 32.4719 79.2715 32.4719 79.2715C32.4719 79.2715 31.4695 80.2349 30.1827 81.0116C28.7487 81.8779 27.1713 81.8779 27.1713 81.8779C25.5651 78.0297 24.5964 73.518 23.1656 70.1858C20.1404 63.1411 17.9738 57.5909 18.6538 54.9562C19.5285 51.5626 36.2705 28.4016 36.2705 28.4016C42.5719 24.6826 47.6576 32.6446 45.9857 37.2697" fill="#2B478B"/>
<path d="M56.9375 24.6697C56.8567 24.6896 56.7732 24.709 56.6816 24.7289C56.2642 24.8151 55.739 24.8878 55.1304 24.9371C54.1186 25.0192 52.8776 25.0405 51.5079 24.9605C46.1071 24.6522 38.7234 22.7971 35.6371 17.1386C33.2534 12.7631 33.4705 -5.6225 50.6181 1.70681C53.3766 2.88451 54.9984 4.04417 56.0137 5.14539C57.9339 7.2242 57.7077 9.10077 58.9061 10.5394C62.391 14.7261 60.4601 23.7944 56.9375 24.6697" fill="#FFB27D"/>
<path d="M51.3117 25.3365C51.3117 25.3365 35.9248 22.7875 22.8613 36.1733C30.0221 26.253 37.9614 19.8899 37.9614 19.8899C37.9614 19.8899 41.0404 17.8392 46.76 20.2705L51.3117 25.3365Z" fill="#233862"/>
<path d="M56.7602 25.6802C51.0422 27.3836 38.4848 23.1091 35.3879 17.4005C32.9808 12.9585 33.1998 -5.70858 50.5181 1.7325C53.3041 2.92851 54.9424 4.10621 55.9684 5.22412V5.22628C55.9684 5.22628 50.7829 4.42293 50.0856 7.11335C49.3881 9.80377 53.1504 10.8 52.5151 12.2949C51.932 13.6649 50.1252 18.133 56.2755 20.0193C57.7917 20.4841 60.4686 20.1389 60.1697 21.8606C59.8519 23.6876 57.7244 25.3934 56.7602 25.6802" fill="#2B478B"/>
<path d="M79.6043 145.96C78.4463 144.137 74.956 139.408 70.3077 140.036C65.2419 140.717 75.9013 144.056 79.1653 145.974C78.4409 145.982 77.8161 145.925 77.3583 145.761C75.1769 144.986 71.4415 146.475 70.2457 147H91.0151C90.8723 146.502 90.498 145.691 89.5312 145.099C89.1891 144.891 88.5051 144.862 87.619 144.929C88.8552 143.475 89.7116 138.824 86.2752 140.019C83.7625 140.895 83.7706 143.736 84.0156 145.416C83.4824 145.5 82.9384 145.586 82.4052 145.662C81.371 140.391 77.7138 124.946 70.2996 124.534C62.7831 124.117 76.6715 140.553 81.2956 145.81C80.7031 145.88 80.1349 145.934 79.6043 145.96" fill="#82B378"/>
</svg>
