<svg width="60" height="84" viewBox="0 0 60 84" fill="none" xmlns="http://www.w3.org/2000/svg">
<path d="M57.75 12C58.9926 12 60 10.9926 60 9.75V2.25C60 1.00744 58.9926 0 57.75 0H2.25C1.00744 0 0 1.00744 0 2.25V10.6403C0 11.8828 1.00744 12.8903 2.25 12.8903H18.24C23.3603 12.8903 27.2889 14.7574 29.6719 18H2.25C1.00744 18 0 19.0074 0 20.25V27.75C0 28.9926 1.00744 30 2.25 30H32.0169C30.8513 36.7661 25.8368 40.9935 18 40.9935H2.25C1.00744 40.9935 0 42.0009 0 43.2435V53.1833C0 53.8112 0.2625 54.4106 0.723938 54.8366L31.6712 83.4034C32.0868 83.787 32.6317 84 33.1973 84H48.6776C50.7259 84 51.7087 81.486 50.2037 80.0966L21.9133 53.9824C36.2569 53.5436 46.5028 43.9708 47.8479 30H57.75C58.9926 30 60 28.9926 60 27.75V20.25C60 19.0074 58.9926 18 57.75 18H46.7456C46.092 15.8361 45.1931 13.8289 44.0734 12H57.75Z" fill="#716B6B" fill-opacity="0.4"/>
</svg>
